<svg width="550" height="550" viewBox="0 0 550 550" fill="none" xmlns="http://www.w3.org/2000/svg">
<path fill-rule="evenodd" clip-rule="evenodd" d="M0 20C0 8.95431 8.95432 0 20 0H530C541.046 0 550 8.95432 550 20V530C550 541.046 541.046 550 530 550H20C8.95431 550 0 541.046 0 530V20ZM400 45C400 33.9543 408.954 25 420 25H505C516.046 25 525 33.9543 525 45V505C525 516.046 516.046 525 505 525H420C408.954 525 400 516.046 400 505V358C400 346.954 391.046 338 380 338H295C283.954 338 275 346.954 275 358V405C275 416.046 266.046 425 255 425H170C158.954 425 150 416.046 150 405V145C150 133.954 158.954 125 170 125H255C266.046 125 275 133.954 275 145V193C275 204.046 283.954 213 295 213H380C391.046 213 400 204.046 400 193V45Z" fill="white"/>
</svg>
