<svg width="3187" height="550" viewBox="0 0 3187 550" fill="none" xmlns="http://www.w3.org/2000/svg">
<path d="M771.5 388.5V153.5L829 96H1000L1056.5 152.5V206H988.5V177.5L965 154H865L839.5 179.5V362.5L865 388H965L988.5 364.5V336H1056.5V389.5L1000 446H829L771.5 388.5Z" fill="currentColor"/>
<path d="M1099.14 393.5V197H1165.14V373L1182.14 390H1222.14L1271.14 341V197H1337.14V446H1276.14V403.5L1233.14 446H1151.64L1099.14 393.5Z" fill="currentColor"/>
<path d="M1384.55 397V366.5H1449.55V380.5L1460.55 392H1541.55L1552.55 380.5V359L1541.05 347H1433.55L1386.55 299.5V245L1434.05 197H1564.05L1612.55 246V276.5H1547.55V262.5L1536.55 251H1462.55L1451.55 262.5V282L1463.05 294H1570.55L1617.55 341.5V398L1570.05 446H1433.05L1384.55 397Z" fill="currentColor"/>
<path d="M1687.61 395V252.5H1642.61V197H1688.61V116H1753.61V197H1829.61V253H1753.61V373.5L1770.61 390H1829.61V446H1739.11L1687.61 395Z" fill="currentColor"/>
<path d="M1874.64 96H1942.64V242.5H2090.64V96H2158.64V446H2090.64V300.5H1942.64V446H1874.64V96Z" fill="currentColor"/>
<path d="M2216.27 394V249L2267.77 197H2410.77L2462.27 249V394L2410.77 446H2267.77L2216.27 394ZM2378.77 391L2396.27 373.5V269.5L2378.77 252H2299.77L2282.27 269.5V373.5L2299.77 391H2378.77Z" fill="currentColor"/>
<path d="M2517.16 197H2578.16V238L2618.66 197H2681.66L2715.66 231.5L2749.66 197H2836.66L2890.16 251V446H2824.16V270.5L2807.16 253H2765.16L2738.66 279.5V446H2674.66V269.5L2658.66 253H2628.66L2583.16 299V446H2517.16V197Z" fill="currentColor"/>
<path d="M2942.83 395V249L2994.33 197H3134.83L3186.83 249V343.5H3008.83V375.5L3024.83 392H3106.33L3121.33 376.5V363.5H3186.33V396L3136.83 446H2993.33L2942.83 395ZM3120.83 297.5V268.5L3103.83 251H3025.83L3008.83 268.5V297.5H3120.83Z" fill="currentColor"/>
<path fill-rule="evenodd" clip-rule="evenodd" d="M25 25H275H400V125V213H275V125H150V425H275V338H400V425V525H275H25V25Z" fill="currentColor"/>
<rect width="550" height="550" rx="10" stroke="currentColor" stroke-width="50" mask="url(#path-2-inside-1_21_2)"/>
</svg>
